<?xml version="1.0" encoding="utf-8"?>
<!-- Svg Vector Icons : http://www.onlinewebfonts.com/icon -->
<!DOCTYPE svg PUBLIC "-//W3C//DTD SVG 1.1//EN" "http://www.w3.org/Graphics/SVG/1.1/DTD/svg11.dtd">
<svg version="1.1" xmlns="http://www.w3.org/2000/svg" xmlns:xlink="http://www.w3.org/1999/xlink" x="0px" y="0px" viewBox="0 0 1000 1000" enable-background="new 0 0 1000 1000" xml:space="preserve">
<metadata> Svg Vector Icons : http://www.onlinewebfonts.com/icon </metadata>
<g><path d="M470.2,989.9c-2.2,0-3.9,0-5.5,0c-86.8,0-173.5,0.2-260.3-0.1c-45.1-0.1-79.9-19.5-103.4-58.3c-9.3-15.3-14-32.2-15.3-50.1c-0.2-3.4-0.3-6.8-0.3-10.3c0-102.6-0.1-205.2,0-307.8c0-40.6,16.3-73.1,49.1-97.1c20.7-15.1,44.4-21.5,69.9-21.5c27.7,0,55.4,0.1,83.2-0.1c4,0,5.5,1.3,6.7,4.9c58,178.3,116.2,356.6,174.3,535C469.2,986.1,469.6,987.7,470.2,989.9z"/><path d="M500.1,10c118.3,0,214.4,96.3,214.4,214.5c-0.1,117.9-96.3,214.1-214.2,214.3c-117.9,0.2-214.7-96.5-214.7-214.4C285.5,106.3,381.9,10,500.1,10z"/><path d="M499.9,882.4c-5.7-17.4-11.2-34-16.6-50.7c-28.7-88-57.4-176.1-86.2-264.1c-1.6-4.8-1-7.5,3-10.8c32.3-26.8,64.3-53.8,96.4-80.8c2.7-2.3,4.3-2.4,7.1,0c32.6,27.5,65.3,54.9,98,82.2c2.6,2.2,3.2,3.9,2.1,7.2c-34.1,104.2-68.1,208.5-102.1,312.7C501.1,879.4,500.6,880.5,499.9,882.4z"/><path d="M914.4,717.4c0-51.3-0.1-102.6,0-153.9c0.1-19.8-3.6-38.7-13.2-56.1c-20.7-37.6-52.4-59.1-95.5-61.9c-31.4-2.1-63-0.3-94.5-0.8c-3.6-0.1-4.5,1.7-5.4,4.5c-5.6,17.4-11.3,34.8-17,52.2C636.4,662.5,584,823.6,531.5,984.7c-1.1,3.3-2.3,5.3,3.1,5.3c87.5-0.2,175-0.1,262.5-0.1c21.1,0,41.1-4.6,59.2-15.6c38.3-23.3,57.9-57.5,58.1-102.3C914.6,820.4,914.4,768.9,914.4,717.4z M833.3,808c-3,1.3-6.3,1.4-9.5,1.4c-28.2,0-56.5,0-84.7,0c-19.1,0-38.1,0.1-57.2,0c-12.3-0.1-20-9.5-17.2-20.4c1.7-6.7,7.3-11.5,14.3-11.9c5.6-0.3,11.1-0.2,16.7-0.2c19.4,0,38.8,0,58.3,0c0,0,0,0,0,0c24.3,0,48.6-0.1,72.8,0c8.4,0,14.9,5.6,16.2,13C844.2,797.7,840.3,805.2,833.3,808z"/></g>
</svg>